<svg width="205" height="163" viewBox="0 0 205 163" fill="none" xmlns="http://www.w3.org/2000/svg">
<path d="M204.024 87.1174C194.701 85.8617 185.347 85.5253 175.941 85.5496C166.535 85.5739 156.755 85.6029 147.205 84.6407C134.528 83.3715 122.1 80.4896 109.998 76.5676C101.84 73.9467 93.8429 70.8598 85.9723 67.5026C77.5105 63.9046 69.2835 59.6897 60.654 56.5323C51.1436 53.0391 41.2105 51.5739 31.0989 51.6785C26.094 51.7191 21.0883 52.1088 16.1117 52.6259C11.135 53.1431 5.96025 53.7323 1.02693 54.9102C-0.043609 55.1542 0.0202596 56.9639 1.21378 56.9065C10.2034 56.4674 19.0495 54.6928 28.0682 54.3812C37.0869 54.0696 46.1735 54.762 54.8791 57.3118C63.5846 59.8617 71.7338 63.8529 80.0369 67.4603C88.3399 71.0676 96.55 74.2669 105.053 77.1044C117.499 81.2431 130.289 84.4182 143.324 85.8471C153.087 86.9218 162.885 86.9692 172.676 86.75C183.132 86.513 193.631 86.1057 204.059 87.2704C204.141 87.2785 204.163 87.1393 204.055 87.1371L204.024 87.1174Z" fill="#231F20"/>
<path d="M77.4835 118.612C64.2184 109.939 56.0566 96.48 47.0461 83.8857C39.9703 74.016 31.8782 63.922 20.766 58.4598C17.7776 56.9947 14.655 55.8821 11.4018 55.2553C8.14864 54.6285 3.95325 53.8677 0.855598 55.2175C0.247422 55.4902 0.366329 56.4826 0.99103 56.6353C2.53601 57.0612 4.06089 56.9283 5.65776 56.9936C7.25463 57.0589 8.87476 57.2262 10.4417 57.513C13.3796 58.0507 16.3028 58.9941 19.0233 60.2252C24.5213 62.7013 29.3573 66.5086 33.6456 70.7358C42.8182 79.8056 49.5066 90.9171 57.5755 100.909C63.2145 107.887 69.5821 114.296 77.2729 118.982C77.5175 119.114 77.7339 118.77 77.509 118.606L77.4835 118.612Z" fill="#231F20"/>
<path d="M18.2515 60.1329C22.6015 63.2193 23.5278 68.6956 25.4165 73.3356C27.7335 79.0316 31.0375 84.2343 34.5673 89.2515C37.7711 93.7795 41.0573 98.3156 44.9444 102.312C48.8316 106.309 53.483 109.541 58.6715 111.954C65.0597 114.925 71.5799 117.651 78.0214 120.502C78.7064 120.802 79.1322 119.846 78.7298 119.374C74.7621 114.672 72.3141 108.872 69.5928 103.402C66.8715 97.9322 64.2647 92.1413 61.2062 86.7216C58.3995 81.7006 54.4824 77.9254 50.0278 74.3799C45.841 71.0685 41.5442 67.8626 36.9522 65.1264C31.8966 62.1204 26.467 59.7092 20.6896 58.4773C19.7299 58.2668 19.2617 59.7417 20.2213 59.9522C30.564 62.1558 39.4724 68.0665 47.7114 74.4517C52.4616 78.1176 56.7843 81.9078 59.7824 87.1802C62.7805 92.4527 65.2491 97.8726 67.9217 103.246C70.8379 109.101 73.4416 115.348 77.72 120.356L78.4284 119.229C72.6465 116.683 66.8252 114.2 61.063 111.623C55.3008 109.047 50.441 106.076 46.112 101.671C42.0254 97.5048 38.5538 92.7427 35.1898 87.9828C31.6658 82.9912 28.3502 77.7374 26.1352 72.0183C24.4124 67.6356 23.3363 61.7373 18.5015 59.7003C18.1746 59.5602 18.0127 60.0263 18.2689 60.2094L18.2515 60.1329Z" fill="#231F20"/>
<path d="M96.9799 1.68046C91.6619 6.11177 85.8788 10.032 79.8404 13.4203C73.802 16.8085 67.1895 19.4423 60.7997 22.3473C54.9218 25.0282 49.4268 28.2121 44.179 32.0104C38.9312 35.8087 33.9768 39.8352 28.737 43.5512C25.9179 45.535 22.9991 47.4343 19.977 49.1157C16.9549 50.797 13.5733 52.0774 10.303 53.4934C9.20252 53.9589 9.90943 55.6489 11.0055 55.3991C17.0384 54.1046 22.8206 50.5333 27.8519 47.0795C32.8832 43.6257 37.8945 39.613 42.9071 35.8415C48.1652 31.8531 53.6008 28.173 59.4911 25.1941C65.9583 21.9228 72.6751 19.1579 78.9589 15.5528C85.5961 11.7329 91.5965 7.11928 97.1109 1.78474C97.1758 1.7163 97.0702 1.60621 97.0054 1.67465L96.9799 1.68046Z" fill="#231F20"/>
<path d="M27.0703 46.2383C37.8416 43.381 48.7304 41.275 58.8038 36.2965C68.2551 31.6475 76.9726 25.0733 84.2271 17.491C88.9271 12.5835 93.3477 7.39095 97.8854 2.35947C98.6126 1.54989 97.4656 0.282108 96.713 1.0975C93.4511 4.55048 88.3787 5.7065 83.9878 7.02913C77.9889 8.82556 71.8227 10.1235 65.8411 11.9965C54.9822 15.4102 43.9125 20.7231 36.578 29.7186C32.5755 34.6281 30.7955 40.9359 26.5565 45.631C25.959 46.3037 26.8636 47.3316 27.5434 46.667C31.4134 42.9413 32.9832 37.5936 35.9849 33.2341C39.4565 28.231 44.1387 24.186 49.322 21.0463C54.5054 17.9066 60.3474 15.4216 66.2015 13.5777C72.0556 11.7338 78.3179 10.387 84.3424 8.58481C88.8862 7.22732 94.5507 5.9632 97.9109 2.35366L96.7385 1.09169C89.4138 9.30695 82.378 17.9661 73.8044 24.9368C65.2308 31.9075 56.0348 37.0885 45.6937 40.3038C39.4886 42.2545 33.2253 43.9502 27.0435 46.0029C26.8905 46.0378 26.9486 46.2928 27.0958 46.2325L27.0703 46.2383Z" fill="#231F20"/>
<path d="M131.758 125.693C124.091 121.109 116.906 115.583 110.308 109.575C103.71 103.567 98.0219 97.4324 91.4741 91.7617C85.4992 86.6043 79.64 81.3668 73.6905 76.2036C67.7411 71.0404 61.6337 65.5376 54.8945 61.1446C51.34 58.8426 47.6222 56.7657 43.8097 54.9787C40.9894 53.663 38.0868 52.3393 34.9543 52.0069C33.7966 51.8683 33.492 53.7084 34.6081 54.0174C48.8063 58.0787 60.3619 67.8395 71.3285 77.2516C77.3231 82.3777 83.2726 87.5409 89.3263 92.5731C95.8414 97.983 101.838 103.94 108.158 109.555C115.326 115.944 123.165 121.4 131.711 125.838C131.805 125.897 131.878 125.746 131.79 125.712L131.758 125.693Z" fill="#231F20"/>
<path d="M64.8791 69.8951C68.3905 75.1847 70.848 81.1438 73.9552 86.6597C76.8791 91.8417 80.6253 96.5144 84.6251 100.888C92.191 109.143 101.461 116.286 111.796 120.692C114.499 121.846 117.238 122.805 120.113 123.303C123.664 123.943 127.126 124.307 130.376 125.981C131.349 126.484 132.26 125.069 131.281 124.541C126.585 121.935 122.762 117.629 119.661 113.319C115.932 108.133 112.454 102.755 108.628 97.6173C101.972 88.6448 93.6519 79.4343 82.8688 75.5337C76.9957 73.4114 70.8533 72.3431 65.3433 69.226C64.5411 68.7649 63.813 69.9235 64.5759 70.4472C68.993 73.3573 74.2397 74.4956 79.2051 76.0467C84.9204 77.8293 89.8414 80.5978 94.4226 84.4632C104.084 92.6169 110.663 103.485 117.947 113.683C121.294 118.366 125.363 123.045 130.356 126.012L131.262 124.572C126.321 121.835 120.441 122.155 115.21 120.262C109.979 118.369 105.042 115.765 100.457 112.706C95.6155 109.463 91.1908 105.696 87.0649 101.593C82.939 97.4895 78.7013 92.6605 75.5699 87.3916C72.0522 81.4864 69.1682 75.3026 65.0401 69.778C64.96 69.6621 64.7794 69.8106 64.8339 69.9323L64.8791 69.8951Z" fill="#231F20"/>
<path d="M143.47 29.0732C138.701 31.7965 133.206 33.4513 127.985 35.0166C121.616 36.9512 115.151 38.5855 108.677 40.061C102.967 41.3623 97.226 42.6438 91.4373 43.4802C82.5572 44.7529 73.521 44.9879 64.7818 47.1138C60.6641 48.1059 56.5929 49.302 52.4869 50.3451C49.0633 51.2058 45.4787 52.1837 41.942 52.0776C40.4274 52.0204 40.3016 54.4099 41.8359 54.4358C44.9728 54.5525 48.1393 53.8577 51.1667 53.1409C54.8824 52.2673 58.526 51.1954 62.2126 50.1943C70.7269 47.9051 79.3709 47.0082 88.0588 45.833C101.065 44.0761 114.093 40.6509 126.586 36.7575C132.42 34.9449 138.606 33.0255 143.725 29.6052C144.053 29.3964 143.772 28.8702 143.438 29.0535L143.47 29.0732Z" fill="#231F20"/>
<path d="M51.9573 52.022C59.9131 51.2819 67.3755 54.1419 75.2118 54.8778C81.3515 55.4638 87.6804 54.8799 93.738 53.9286C99.7955 52.9773 105.874 51.6457 111.34 48.9244C116.806 46.203 122.164 43.2383 127.484 40.2284C133.344 36.8808 139.237 33.4451 144.574 29.3314C145.257 28.8001 144.435 27.7803 143.717 28.1586C138.839 30.6385 133.15 31.5594 127.769 32.3029C120.881 33.2557 113.953 33.6811 107.03 34.1319C96.0176 34.8711 84.8609 35.2139 74.4531 39.1955C66.4364 42.2566 58.7207 46.4028 51.5638 51.119C50.7924 51.6167 51.4573 52.8871 52.2542 52.3835C63.002 45.7758 74.3709 39.1875 87.0502 37.2904C99.7296 35.3934 113.327 35.4065 126.388 33.7713C132.46 33.0043 138.864 32.1618 144.433 29.4173L143.576 28.2444C138.82 31.85 133.588 34.8935 128.427 37.8941C123.265 40.8947 117.67 43.9941 112.182 46.8545C106.694 49.715 101.246 51.2248 95.3707 52.2687C89.1383 53.394 82.6936 54.058 76.3593 53.6773C68.201 53.1758 60.029 49.6727 51.8353 51.4864C51.4784 51.5677 51.6143 52.0465 51.9573 52.022Z" fill="#231F20"/>
<path d="M174.191 149.637C161.493 143.57 153.271 131.494 146.053 119.94C142.21 113.787 138.388 107.602 134.057 101.775C130.046 96.4115 125.416 91.5108 120.364 87.1089C114.708 82.1739 108.519 77.8433 101.895 74.3093C100.98 73.8205 100.133 75.1669 101.03 75.687C113.04 82.5005 123.467 91.3112 132.342 101.898C141.216 112.484 147.549 126.386 157.167 137.179C161.89 142.487 167.561 147.017 174.084 149.876C174.204 149.929 174.316 149.716 174.197 149.663L174.191 149.637Z" fill="#231F20"/>
<path d="M115.001 84.8705C120.02 87.4824 124.819 90.0643 129.149 93.7721C133.48 97.4799 137.118 101.56 140.573 105.897C147.884 115.15 153.726 125.488 160.759 134.938C164.782 140.353 169.223 145.484 174.402 149.857L175.261 148.803C173.452 147.686 170.536 148.539 168.498 148.305C165.55 147.958 162.648 147.224 159.899 146.107C154.548 143.919 149.95 140.219 146.127 135.912C138.331 127.119 133.473 116.154 128.381 105.698C124.787 98.2806 121.159 90.3617 115.553 84.2349C115.051 83.6786 114.261 84.4488 114.713 85.0167C123.238 95.9511 128.091 109.01 134.631 121.121C139.952 130.935 146.67 140.886 156.848 146.131C159.647 147.586 162.644 148.62 165.733 149.231C167.135 149.501 168.594 149.786 170.04 149.778C171.246 149.772 173.469 149.292 174.533 149.961C175.159 150.355 175.996 149.44 175.392 148.907C157.166 133.289 149.048 109.197 130.815 93.5533C126.317 89.696 121.018 85.8599 115.202 84.3417C114.944 84.2665 114.713 84.6677 114.984 84.7939L115.001 84.8705Z" fill="#231F20"/>
<path d="M179.338 51.5091C170.035 52.6904 160.495 54.2474 151.735 57.6926C139.081 62.6422 126.033 67.0379 112.714 69.7781C109.205 70.4974 105.654 71.0382 102.068 71.1849C100.342 71.2564 98.623 71.2457 96.8754 71.1074C95.0514 70.9866 93.2202 70.5991 91.4056 70.637C90.9548 70.6593 90.5984 71.3307 91.1131 71.589C93.7688 72.8885 97.0784 72.9391 99.9766 72.9493C102.875 72.9595 105.899 72.6995 108.826 72.2471C115.328 71.248 121.707 69.4723 128.012 67.6061C134.77 65.6099 141.407 63.3193 147.998 60.8247C153.08 58.8884 158.021 57.038 163.325 55.7219C168.629 54.4058 174.107 53.2646 179.555 52.3449C180.096 52.2484 179.89 51.4637 179.369 51.5288L179.338 51.5091Z" fill="#231F20"/>
<path d="M104.245 72.0301C114.983 73.4996 125.667 74.2573 136.184 71.1092C145.999 68.1748 154.689 62.6532 163.984 58.4959C169.073 56.2361 174.251 54.2511 179.562 52.6115C180.443 52.3572 180.129 50.9801 179.248 51.2344C177.629 51.6572 175.008 51.1008 173.247 51.0193C168.856 50.8128 164.457 50.6885 160.046 50.8623C146.843 51.4031 133.686 54.2673 121.619 59.6734C114.539 62.843 109.029 68.5521 101.772 71.4134C101.036 71.7152 101.517 73.0007 102.264 72.7499C108.689 70.5881 113.577 65.7987 119.386 62.4627C125.78 58.752 133.171 56.4773 140.359 54.8391C150.886 52.4399 161.796 51.4828 172.562 52.2486C174.113 52.351 175.645 52.4848 177.177 52.6185C177.943 52.6854 178.835 52.831 179.593 52.6312L179.28 51.2541C170.392 53.7893 161.643 57.6344 153.528 62.0323C143.766 67.3156 133.648 71.9823 122.333 72.3344C116.285 72.5054 110.327 71.422 104.295 71.4284C103.896 71.439 103.884 71.9781 104.276 72.0498L104.245 72.0301Z" fill="#231F20"/>
<path d="M124.842 81.9303C133.42 87.5676 142.963 91.9117 153.055 93.9577C163.148 96.0038 174.273 94.7022 184.594 91.8672C187.751 91.0136 190.836 89.9617 194.04 89.3121C197.243 88.6624 200.778 88.2863 204.167 87.8626C204.847 87.7881 204.824 86.747 204.219 86.563C193.081 83.5749 181.882 80.4396 170.383 79.2777C160.288 78.2786 150.467 79.6584 140.447 80.52C135.371 80.9525 130.248 81.1811 125.169 81.1314C124.795 81.1362 124.636 81.7357 125.054 81.8016C129.198 82.574 133.473 82.2705 137.645 81.9902C142.314 81.6506 146.998 81.1463 151.663 80.6734C156.805 80.1724 161.947 79.9125 167.116 80.2369C173.076 80.6224 178.979 81.5842 184.819 82.8555C191.221 84.2401 197.552 86.0166 203.838 87.8303L203.89 86.5306C198.157 87.1398 192.652 88.0456 187.131 89.7061C182.064 91.2366 176.932 92.4866 171.679 93.2009C161.115 94.6158 150.781 92.9201 140.905 89.0004C135.508 86.8501 130.346 84.0829 125.418 81.0478C124.855 80.6933 124.323 81.5387 124.867 81.9245L124.842 81.9303Z" fill="#231F20"/>
</svg>
