<svg width="83" height="116" viewBox="0 0 83 116" fill="none" xmlns="http://www.w3.org/2000/svg">
<path d="M5.72955 115.127C3.82624 115.127 2.27612 113.572 2.27612 111.662V99.6518H5.72955C7.63286 99.6518 9.18298 101.207 9.18298 103.117C9.18298 103.452 8.90828 103.727 8.57471 103.727C8.24114 103.727 7.96643 103.452 7.96643 103.117C7.96643 101.877 6.96572 100.873 5.72955 100.873H3.49267V111.662C3.49267 112.903 4.49338 113.907 5.72955 113.907C6.96572 113.907 7.96643 112.903 7.96643 111.662C7.96643 111.327 8.24114 111.052 8.57471 111.052C8.90828 111.052 9.18298 111.327 9.18298 111.662C9.18298 113.572 7.63286 115.127 5.72955 115.127Z" fill="#736536"/>
<path d="M14.7556 115.127H14.3435C12.558 115.127 11.106 113.67 11.106 111.879V102.92C11.106 101.128 12.558 99.6715 14.3435 99.6715H14.7556C16.5412 99.6715 17.9932 101.128 17.9932 102.92V111.879C17.9932 113.67 16.5412 115.127 14.7556 115.127ZM14.3435 100.873C13.2251 100.873 12.3225 101.778 12.3225 102.901V111.859C12.3225 112.981 13.2251 113.887 14.3435 113.887H14.7556C15.874 113.887 16.7766 112.981 16.7766 111.859V102.901C16.7766 101.778 15.874 100.873 14.7556 100.873H14.3435Z" fill="#736536"/>
<path d="M52.6845 115.225C52.4294 115.225 52.1939 115.068 52.1154 114.812L49.0152 105.46H49.8589C51.0951 105.46 52.0958 104.456 52.0958 103.215V102.999C52.0958 101.758 51.0951 100.754 49.8589 100.754H47.6221V114.615C47.6221 114.95 47.3474 115.225 47.0138 115.225C46.6802 115.225 46.4055 114.95 46.4055 114.615V99.5333H49.8393C51.7426 99.5333 53.2928 101.089 53.2928 102.999V103.215C53.2928 104.849 52.1743 106.208 50.6634 106.582L53.2731 114.418C53.3712 114.733 53.2143 115.088 52.8807 115.186C52.8218 115.225 52.7433 115.225 52.6845 115.225Z" fill="#736536"/>
<path d="M41.2253 115.127H40.8133C39.0277 115.127 37.5757 113.67 37.5757 111.879V102.92C37.5757 101.128 39.0277 99.6715 40.8133 99.6715H41.2253C43.0109 99.6715 44.4629 101.128 44.4629 102.92V111.879C44.4629 113.67 43.0109 115.127 41.2253 115.127ZM40.8133 100.873C39.6948 100.873 38.7922 101.778 38.7922 102.901V111.859C38.7922 112.981 39.6948 113.887 40.8133 113.887H41.2253C42.3438 113.887 43.2464 112.981 43.2464 111.859V102.901C43.2464 101.778 42.3438 100.873 41.2253 100.873H40.8133Z" fill="#736536"/>
<path d="M26.2146 115.127C25.881 115.127 25.6063 114.852 25.6063 114.517V103.117C25.6063 101.877 24.6056 100.873 23.3694 100.873H21.1326V114.517C21.1326 114.852 20.8579 115.127 20.5243 115.127C20.1907 115.127 19.916 114.852 19.916 114.517V99.6518H23.3694C25.2728 99.6518 26.8229 101.207 26.8229 103.117V114.517C26.8229 114.852 26.5482 115.127 26.2146 115.127Z" fill="#736536"/>
<path d="M23.3695 115.127C23.0359 115.127 22.7612 114.852 22.7612 114.517V100.479C22.7612 100.144 23.0359 99.8682 23.3695 99.8682C23.7031 99.8682 23.9778 100.144 23.9778 100.479V114.517C23.9778 114.852 23.7227 115.127 23.3695 115.127Z" fill="#736536"/>
<path d="M29.3541 115.127C29.0206 115.127 28.7458 114.852 28.7458 114.517V99.6518H32.1993C34.1026 99.6518 35.6527 101.207 35.6527 103.117C35.6527 103.452 35.378 103.727 35.0444 103.727C34.7109 103.727 34.4362 103.452 34.4362 103.117C34.4362 101.877 33.4355 100.873 32.1993 100.873H29.9624V114.517C29.9624 114.852 29.6877 115.127 29.3541 115.127Z" fill="#736536"/>
<path d="M35.0443 108.001H29.7071C29.3736 108.001 29.0989 107.725 29.0989 107.39C29.0989 107.055 29.3736 106.779 29.7071 106.779H35.0443C35.3778 106.779 35.6525 107.055 35.6525 107.39C35.6525 107.725 35.3778 108.001 35.0443 108.001Z" fill="#736536"/>
<path d="M61.5143 100.874H55.8436C55.5101 100.874 55.2354 100.598 55.2354 100.263C55.2354 99.9278 55.5101 99.6518 55.8436 99.6518H61.5143C61.8479 99.6518 62.1226 99.9278 62.1226 100.263C62.1226 100.598 61.8479 100.874 61.5143 100.874Z" fill="#736536"/>
<path d="M58.6693 115.127C58.3357 115.127 58.061 114.852 58.061 114.517V100.262C58.061 99.9274 58.3357 99.6518 58.6693 99.6518C59.0029 99.6518 59.2776 99.9274 59.2776 100.262V114.517C59.2776 114.852 59.0029 115.127 58.6693 115.127Z" fill="#736536"/>
<path d="M67.4988 115.127C65.5955 115.127 64.0454 113.572 64.0454 111.662V99.6518H67.4988C69.4021 99.6518 70.9523 101.207 70.9523 103.117C70.9523 103.452 70.6776 103.727 70.344 103.727C70.0104 103.727 69.7357 103.452 69.7357 103.117C69.7357 101.877 68.735 100.873 67.4988 100.873H65.262V111.662C65.262 112.903 66.2627 113.907 67.4988 113.907C68.735 113.907 69.7357 112.903 69.7357 111.662C69.7357 111.327 70.0104 111.052 70.344 111.052C70.6776 111.052 70.9523 111.327 70.9523 111.662C70.9326 113.572 69.3825 115.127 67.4988 115.127Z" fill="#736536"/>
<path d="M69.0883 108.001H65.1639C64.8304 108.001 64.5557 107.725 64.5557 107.39C64.5557 107.055 64.8304 106.779 65.1639 106.779H69.0883C69.4219 106.779 69.6966 107.055 69.6966 107.39C69.6966 107.725 69.4219 108.001 69.0883 108.001Z" fill="#736536"/>
<path d="M79.1543 115.127C78.8207 115.127 78.546 114.852 78.546 114.517V103.117C78.546 101.877 77.5453 100.873 76.3091 100.873H74.0723V114.517C74.0723 114.852 73.7976 115.127 73.464 115.127C73.1304 115.127 72.8557 114.852 72.8557 114.517V99.6518H76.3091C78.2125 99.6518 79.7626 101.207 79.7626 103.117V114.517C79.7626 114.852 79.4879 115.127 79.1543 115.127Z" fill="#736536"/>
<path d="M79.017 108.001H73.778C73.4444 108.001 73.1697 107.725 73.1697 107.39C73.1697 107.055 73.4444 106.779 73.778 106.779H79.017C79.3505 106.779 79.6252 107.055 79.6252 107.39C79.6252 107.725 79.3505 108.001 79.017 108.001Z" fill="#736536"/>
<path d="M82.176 95.9891H0.824238C0.706507 95.9891 0.608398 95.8906 0.608398 95.7725V42.612C0.608398 20.0484 19.0136 1.58002 41.5001 1.58002C63.9867 1.58002 82.3919 20.0484 82.3919 42.612V95.7725C82.3919 95.8906 82.2938 95.9891 82.176 95.9891Z" fill="white"/>
<path d="M81.862 85.8297V68.1686C81.862 68.1686 51.4286 65.7074 36.8889 76.3001C36.8889 76.3001 69.4022 79.4504 81.862 85.8297Z" fill="#B5BD5F"/>
<path d="M1.21655 74.1736C1.21655 74.1736 48.8386 72.3819 81.862 85.5145L81.7835 95.3788H1.21655V74.1736Z" fill="#9FBB77"/>
<path d="M27.0779 36.0754H57.7467V57.7924C57.7859 61.7499 54.9996 64.8411 51.1145 64.4473H34.1025C30.2174 64.8608 27.0779 61.6908 27.0779 57.7924V36.0754Z" fill="#FFE1A8"/>
<path d="M29.6876 65.7073C29.6876 65.7073 21.6819 66.2586 24.429 67.9125H56.3928C56.3928 67.9125 58.6297 66.9083 56.3928 65.471C54.1363 64.014 29.6876 65.7073 29.6876 65.7073Z" fill="#FFE1A8"/>
<path d="M14.9714 38.9892C14.9714 38.9892 18.8762 18.6307 43.1287 18.0401C62.8093 17.5675 68.2249 39.8359 68.2249 39.8359C68.2249 39.8359 60.8863 22.0173 43.1287 22.8442C25.3513 23.6318 14.9714 38.9892 14.9714 38.9892Z" fill="#FBEF9E"/>
<path d="M10.4976 69.4091C10.4976 69.4091 -8.61396 68.7397 9.81086 47.003C9.81086 47.003 20.1908 65.1366 10.4976 69.4091Z" fill="#CADB7A"/>
<path d="M76.3483 64.1521C76.3483 64.1521 63.1232 63.1479 75.4849 46.3138C75.4849 46.3335 85.806 61.4547 76.3483 64.1521Z" fill="#CADB7A"/>
<path d="M47.877 52.4763H42.1475V62.1436H47.877V52.4763Z" fill="white"/>
<path d="M83 96.5995H0V42.6121C0 19.6546 18.621 0.969727 41.5 0.969727C64.379 0.969727 83 19.6546 83 42.6121V96.5995ZM1.21655 95.3788H81.7835V42.6121C81.7835 20.3241 63.7118 2.19045 41.5 2.19045C19.2882 2.19045 1.21655 20.3241 1.21655 42.6121V95.3788Z" fill="#736536"/>
<path d="M75.1514 45.4866H73.9348V68.1684H75.1514V45.4866Z" fill="#736536"/>
<path d="M74.5431 64.9394C74.5038 64.9394 74.4842 64.9394 74.445 64.9394C74.2684 64.9197 70.1282 64.2503 68.6566 60.5881C67.1849 56.9063 68.9901 51.7084 74.0525 45.1125C74.1703 44.955 74.3665 44.8566 74.5627 44.8763C74.7589 44.896 74.9551 44.9944 75.0532 45.1716C75.3083 45.5851 81.0967 55.5871 78.801 61.356C78.0946 63.128 76.7211 64.3291 74.7001 64.9001C74.6608 64.9197 74.6019 64.9394 74.5431 64.9394ZM74.4646 46.6089C70.1674 52.3975 68.5584 57.0638 69.7946 60.1353C70.8738 62.8327 73.8759 63.5809 74.5038 63.699C76.0932 63.2068 77.1332 62.3011 77.6826 60.9229C79.4289 56.5716 75.7792 49.07 74.4646 46.6089Z" fill="#736536"/>
<path d="M72.2162 49.2615L71.2002 49.9332L74.0509 54.2749L75.067 53.6032L72.2162 49.2615Z" fill="#736536"/>
<path d="M70.3987 52.8946L69.3828 53.5663L74.0476 60.6701L75.0636 59.9984L70.3987 52.8946Z" fill="#736536"/>
<path d="M77.14 51.8412L74.0913 55.4166L75.0156 56.2102L78.0644 52.6348L77.14 51.8412Z" fill="#736536"/>
<path d="M78.267 56.0873L74.0823 60.995L75.0067 61.7887L79.1915 56.881L78.267 56.0873Z" fill="#736536"/>
<path d="M11.4004 45.6835H10.1838V76.2803H11.4004V45.6835Z" fill="#736536"/>
<path d="M10.7919 69.9997C10.7527 69.9997 10.7331 69.9997 10.6938 69.9997C10.478 69.9603 5.33709 69.153 3.53189 64.6245C1.68744 60.0567 3.98319 53.5593 10.3014 45.3096C10.4191 45.1521 10.6153 45.0536 10.8116 45.0733C11.0078 45.093 11.204 45.1914 11.3021 45.3686C11.616 45.9002 18.8761 58.4225 16.0113 65.609C15.148 67.7945 13.4409 69.2712 10.9489 69.98C10.9097 69.9997 10.8508 69.9997 10.7919 69.9997ZM10.7134 46.8059C5.16049 54.2287 3.08059 60.2339 4.66995 64.1914C6.08271 67.7157 10.0071 68.6411 10.7723 68.7986C12.8326 68.1686 14.1865 66.9872 14.9125 65.1955C17.1494 59.5054 12.2636 49.6608 10.7134 46.8059Z" fill="#736536"/>
<path d="M7.72673 50.5329L6.71069 51.2047L10.2957 56.6647L11.3117 55.993L7.72673 50.5329Z" fill="#736536"/>
<path d="M5.44392 55.1086L4.42798 55.7802L10.2901 64.7084L11.3061 64.0368L5.44392 55.1086Z" fill="#736536"/>
<path d="M14.1726 53.776L10.3323 58.2797L11.2567 59.0734L15.097 54.5697L14.1726 53.776Z" fill="#736536"/>
<path d="M15.6056 59.1272L10.3347 65.3058L11.2591 66.0998L16.5299 59.9211L15.6056 59.1272Z" fill="#736536"/>
<path d="M67.8522 41.155C65.7723 28.1012 54.686 18.6307 41.5002 18.6307C28.7265 18.6307 17.699 27.7468 15.2855 40.3084L14.0886 40.0721C16.6198 26.9592 28.1574 17.4297 41.5002 17.4297C48.1716 17.4297 54.6272 19.8318 59.6896 24.2027C64.6931 28.5146 68.0092 34.4804 69.0492 40.9778L67.8522 41.155Z" fill="#736536"/>
<path d="M42.1084 8.5697H40.8918V16.4256H42.1084V8.5697Z" fill="#736536"/>
<path d="M32.5874 9.66459L31.4124 9.98047L32.1996 12.9282L33.3747 12.6123L32.5874 9.66459Z" fill="#736536"/>
<path d="M33.8225 14.3128L32.6475 14.6288L33.4342 17.5767L34.6093 17.2606L33.8225 14.3128Z" fill="#736536"/>
<path d="M15.9629 18.9445L15.1025 19.808L17.2534 21.9666L18.1138 21.1031L15.9629 18.9445Z" fill="#736536"/>
<path d="M19.3578 22.3484L18.4976 23.2119L20.6483 25.3707L21.5086 24.5072L19.3578 22.3484Z" fill="#736536"/>
<path d="M6.18532 35.2923L5.87012 36.473L8.80802 37.263L9.12323 36.0823L6.18532 35.2923Z" fill="#736536"/>
<path d="M10.8135 36.5434L10.4983 37.724L13.4362 38.5139L13.7515 37.3332L10.8135 36.5434Z" fill="#736536"/>
<path d="M76.8194 35.2855L73.8818 36.0765L74.1974 37.2571L77.1349 36.466L76.8194 35.2855Z" fill="#736536"/>
<path d="M72.1735 36.549L69.2358 37.3397L69.5515 38.5202L72.4892 37.7295L72.1735 36.549Z" fill="#736536"/>
<path d="M67.0361 18.9351L64.885 21.0936L65.7454 21.9569L67.8965 19.7985L67.0361 18.9351Z" fill="#736536"/>
<path d="M63.6428 22.3418L61.4917 24.5002L62.3521 25.3636L64.5032 23.2052L63.6428 22.3418Z" fill="#736536"/>
<path d="M50.4225 9.67048L49.6357 12.6182L50.8108 12.934L51.5976 9.98629L50.4225 9.67048Z" fill="#736536"/>
<path d="M49.1777 14.3146L48.3909 17.2623L49.5659 17.5781L50.3527 14.6304L49.1777 14.3146Z" fill="#736536"/>
<path d="M23.6601 13.1989L22.6064 13.8093L26.5219 20.6141L27.5755 20.0037L23.6601 13.1989Z" fill="#736536"/>
<path d="M9.97312 26.4791L9.36499 27.5362L16.1444 31.4645L16.7526 30.4074L9.97312 26.4791Z" fill="#736536"/>
<path d="M73.008 26.4747L66.2283 30.4033L66.8366 31.4603L73.6163 27.5317L73.008 26.4747Z" fill="#736536"/>
<path d="M59.3481 13.2073L55.4319 20.0121L56.4855 20.6227L60.4017 13.8178L59.3481 13.2073Z" fill="#736536"/>
<path d="M37.0262 77.442L36.5356 76.3197C60.8274 65.6679 82.2543 68.4638 82.4702 68.4835L82.3132 69.6845C82.0974 69.6648 60.9844 66.928 37.0262 77.442Z" fill="#736536"/>
<path d="M56.4712 80.1592L55.6667 79.2338C59.336 76.0048 63.4958 73.5831 68.0285 72.0473C75.9556 69.3499 82.2346 70.2753 82.4897 70.3147L82.3131 71.5157C82.2542 71.5157 76.0538 70.61 68.4209 73.1893C64.0256 74.7053 60.0032 77.0483 56.4712 80.1592Z" fill="#736536"/>
<path d="M68.7545 82.5809L67.6753 82.0099C72.6985 72.5985 81.4498 72.0078 81.8226 71.9882L81.8814 73.2089C81.803 73.2089 73.4245 73.7799 68.7545 82.5809Z" fill="#736536"/>
<path d="M82.1955 86.9322C77.604 85.4161 72.8359 84.0576 68.0678 82.8959C65.7917 82.3446 63.4567 81.813 61.1217 81.3208C59.3558 80.9467 57.6094 80.612 55.9612 80.3167C44.6983 78.269 32.8271 77.0483 20.7205 76.7136C18.7387 76.6545 16.7569 76.6151 14.5004 76.5954C12.2832 76.5757 10.3602 76.5954 8.81011 76.6151H8.55503C7.90751 76.6151 7.31886 76.6151 6.78907 76.6151C3.00207 76.6348 0.725948 76.7332 0.706326 76.7332L0.647461 75.5125C0.667083 75.5125 2.96283 75.3944 6.78907 75.3944C7.29924 75.3944 7.88789 75.3944 8.53541 75.3944H8.79049C10.3406 75.3747 12.2635 75.3747 14.5004 75.3747C16.7373 75.3944 18.7976 75.4338 20.7598 75.4928C32.9449 75.8472 44.8553 77.0483 56.177 79.1156C57.8449 79.411 59.5912 79.7654 61.3768 80.1198C63.7314 80.612 66.0664 81.1436 68.3622 81.6949C73.1695 82.8762 77.9572 84.2348 82.5879 85.7705L82.1955 86.9322Z" fill="#736536"/>
<path d="M16.3057 95.9102C11.2237 85.1206 1.09884 76.8315 1.00073 76.7528L1.76598 75.8077C1.86409 75.8864 12.2048 84.333 17.4045 95.3786L16.3057 95.9102Z" fill="#736536"/>
<path d="M31.2966 95.9694C27.7255 90.1808 22.9378 85.2192 17.0512 81.2223C16.1486 80.6119 15.2068 80.0213 14.1668 79.4109C10.7919 77.442 8.39804 76.5757 8.37842 76.5757L8.79047 75.4337C8.88858 75.4731 11.3021 76.3394 14.7947 78.3674C15.8347 78.9777 16.7962 79.5881 17.738 80.2182C23.7619 84.3135 28.6869 89.3933 32.3366 95.3394L31.2966 95.9694Z" fill="#736536"/>
<path d="M48.564 96.2649C45.4442 90.0037 37.0853 84.6483 30.6297 81.2618C25.1553 78.3872 20.5638 76.6939 20.5049 76.6743L20.3872 76.6349L20.2891 76.5561L20.7011 76.1033L20.917 75.5323C20.9562 75.552 25.6262 77.2846 31.1791 80.1789C37.7917 83.6442 46.386 89.1571 49.6432 95.7136L48.564 96.2649Z" fill="#736536"/>
<path d="M72.7182 96.4423C54.9017 80.4941 38.1643 77.8952 38.0073 77.8755L38.1839 76.6744C38.3605 76.6941 55.4118 79.3325 73.5423 95.5366L72.7182 96.4423Z" fill="#736536"/>
<path d="M6.08278 96.0087C6.06316 95.5165 5.45488 93.5082 0.0981445 85.3766L1.11848 84.7072C7.22084 94.0004 7.27971 95.4771 7.29933 95.9693L6.08278 96.0087Z" fill="#736536"/>
<path d="M56.2555 69.115H23.6441C22.3294 69.115 21.2502 68.0318 21.2502 66.7122C21.2502 65.3926 22.3294 64.3094 23.6441 64.3094H56.2555C57.5701 64.3094 58.6493 65.3926 58.6493 66.7122C58.6493 68.0318 57.5701 69.115 56.2555 69.115ZM23.6441 65.9638C23.2124 65.9638 22.8788 66.3183 22.8788 66.7319C22.8788 67.1652 23.232 67.5 23.6441 67.5H56.2555C56.6871 67.5 57.0207 67.1455 57.0207 66.7319C57.0207 66.2986 56.6675 65.9638 56.2555 65.9638H23.6441Z" fill="#736536"/>
<path d="M48.6227 65.668H31.6107C27.2939 65.668 23.762 62.1436 23.762 57.7924V35.2681H56.4518V57.7924C56.4714 62.1239 52.9395 65.668 48.6227 65.668ZM25.3906 36.9023V57.812C25.3906 61.2576 28.1769 64.0535 31.6107 64.0535H48.6227C52.0565 64.0535 54.8428 61.2576 54.8428 57.812V36.9023H25.3906Z" fill="#736536"/>
<path d="M45.8559 36.0756H44.2273V52.4569H45.8559V36.0756Z" fill="#736536"/>
<path d="M48.7012 62.9508H41.343V51.6689H48.7012V62.9508ZM42.9716 61.3166H47.0726V53.2835H42.9716V61.3166Z" fill="#736536"/>
<path d="M63.6137 53.1653H62.0047V42.9467C62.0047 39.5995 59.2969 36.8824 55.9612 36.8824V35.2482C60.1799 35.2482 63.6333 38.6938 63.6333 42.927V53.1653H63.6137Z" fill="#736536"/>
</svg>
